<svg aria-hidden="true" style="position: absolute; width: 0; height: 0; overflow: hidden;" version="1.1" xmlns="http://www.w3.org/2000/svg" xmlns:xlink="http://www.w3.org/1999/xlink">
<defs>
<symbol id="arrow" viewBox="0 0 32 32">
<path d="M31.726 15.287l-9.599-10.666c-0.205-0.226-0.491-0.354-0.794-0.354h-6.4c-0.432 0-0.803 0.256-0.972 0.625l-0.003 0.007c-0.171 0.386-0.1 0.836 0.181 1.148l8.957 9.954-8.957 9.951c-0.282 0.314-0.354 0.764-0.181 1.148 0.173 0.386 0.555 0.634 0.975 0.634h6.4c0.303 0 0.589-0.13 0.794-0.352l9.599-10.666c0.365-0.405 0.365-1.024 0-1.427z"></path>
<path d="M17.86 15.287l-9.599-10.666c-0.205-0.226-0.491-0.354-0.794-0.354h-6.4c-0.432 0-0.803 0.256-0.972 0.625l-0.003 0.007c-0.171 0.386-0.1 0.836 0.181 1.148l8.957 9.954-8.957 9.951c-0.282 0.314-0.354 0.764-0.181 1.148 0.173 0.386 0.555 0.634 0.975 0.634h6.4c0.303 0 0.589-0.13 0.794-0.352l9.599-10.666c0.365-0.405 0.365-1.024 0-1.427z"></path>
</symbol>
<symbol id="cart" viewBox="0 0 32 32">
<path d="M10.534 23.52c-2.105 0-3.811 1.706-3.811 3.811s1.706 3.811 3.811 3.811c2.105 0 3.811-1.706 3.811-3.811-0.002-2.104-1.707-3.809-3.811-3.811zM10.534 29.741c-1.331 0-2.41-1.079-2.41-2.41s1.079-2.41 2.41-2.41c1.331 0 2.41 1.079 2.41 2.41s-1.079 2.41-2.41 2.41zM31.306 7.525h-24.738l-0.504-2.823c-0.311-1.738-1.673-3.098-3.412-3.405l-1.829-0.322c-0.381-0.068-0.745 0.186-0.813 0.567-0.007 0.037-0.011 0.079-0.011 0.122 0 0.344 0.247 0.63 0.574 0.69l0.004 0.001 1.836 0.322c1.159 0.211 2.059 1.111 2.267 2.253l0.003 0.017 2.48 13.991c0.293 1.674 1.747 2.895 3.447 2.893h14.712c1.546 0.005 2.911-1.007 3.356-2.487l3.293-10.915c0.061-0.213 0.022-0.442-0.105-0.623-0.13-0.17-0.332-0.279-0.56-0.28h-0zM27.341 18.931c-0.264 0.889-1.083 1.497-2.011 1.492h-14.712c-1.020 0.003-1.894-0.731-2.067-1.737l-1.73-9.766h23.547zM25.246 23.52c-2.105 0-3.811 1.706-3.811 3.811s1.706 3.811 3.811 3.811c2.105 0 3.811-1.706 3.811-3.811-0.002-2.104-1.707-3.809-3.811-3.811zM25.246 29.741c-1.331 0-2.41-1.079-2.41-2.41s1.079-2.41 2.41-2.41c1.331 0 2.41 1.079 2.41 2.41s-1.079 2.41-2.41 2.41z"></path>
</symbol>
<symbol id="clock" viewBox="0 0 32 32">
<path d="M16 0c-8.822 0-16 7.178-16 16s7.178 16 16 16 16-7.178 16-16-7.178-16-16-16zM16 30c-7.72 0-14-6.28-14-14s6.28-14 14-14 14 6.28 14 14-6.28 14-14 14z"></path>
<path d="M17 6h-2v10.414l6.293 6.293 1.414-1.414-5.707-5.707z"></path>
</symbol>
<symbol id="compass" viewBox="0 0 32 32">
<path d="M16 0c-8.836 0-16 7.164-16 16s7.164 16 16 16 16-7.164 16-16c-0.010-8.832-7.168-15.99-16-16zM16 30.933c-8.247 0-14.933-6.686-14.933-14.933s6.686-14.933 14.933-14.933 14.933 6.686 14.933 14.933c-0.009 8.243-6.69 14.924-14.933 14.933z"></path>
<path d="M16 2.667c-7.364 0-13.333 5.97-13.333 13.333s5.97 13.333 13.333 13.333 13.333-5.97 13.333-13.333c-0.008-7.36-5.973-13.325-13.333-13.333zM16 28.267c-6.775 0-12.267-5.492-12.267-12.267s5.492-12.267 12.267-12.267 12.267 5.492 12.267 12.267c-0.008 6.772-5.495 12.259-12.267 12.267z"></path>
<path d="M23.855 8.145c-0.096-0.096-0.23-0.156-0.377-0.156-0.097 0-0.188 0.026-0.266 0.071l0.003-0.001-9.522 5.434c-0.006 0.004-0.008 0.010-0.014 0.014-0.061 0.052-0.118 0.109-0.171 0.171-0.003 0.006-0.010 0.009-0.013 0.014l-5.436 9.522c-0.044 0.076-0.070 0.167-0.070 0.264 0 0.147 0.060 0.281 0.156 0.377v0c0.097 0.096 0.23 0.156 0.377 0.156 0.097 0 0.188-0.026 0.267-0.071l-0.003 0.001 9.52-5.434c0.006-0.004 0.008-0.010 0.014-0.014 0.061-0.052 0.118-0.109 0.171-0.171 0.003-0.006 0.010-0.009 0.013-0.014l5.436-9.52c0.045-0.076 0.071-0.168 0.071-0.266 0-0.148-0.060-0.281-0.157-0.378v0zM9.954 22.046l4.12-7.217 3.099 3.096zM17.925 17.173l-3.093-3.094 7.216-4.121zM7.467 15.467h-2.133c-0.295 0-0.533 0.239-0.533 0.533s0.239 0.533 0.533 0.533v0h2.133c0.295 0 0.533-0.239 0.533-0.533s-0.239-0.533-0.533-0.533v0zM26.667 15.467h-2.133c-0.295 0-0.533 0.239-0.533 0.533s0.239 0.533 0.533 0.533v0h2.133c0.295 0 0.533-0.239 0.533-0.533s-0.239-0.533-0.533-0.533v0zM16 8c0.295 0 0.533-0.239 0.533-0.533v0-2.133c0-0.295-0.239-0.533-0.533-0.533s-0.533 0.239-0.533 0.533v0 2.133c0 0.295 0.239 0.533 0.533 0.533v0zM16 24c-0.295 0-0.533 0.239-0.533 0.533v0 2.133c0 0.295 0.239 0.533 0.533 0.533s0.533-0.239 0.533-0.533v0-2.133c0-0.295-0.239-0.533-0.533-0.533v0z"></path>
</symbol>
<symbol id="heart" viewBox="0 0 32 32">
<path d="M29.665 4.642c-1.578-1.791-3.768-2.777-6.165-2.777-3.372 0-5.506 2.014-6.703 3.703-0.311 0.438-0.575 0.878-0.797 1.292-0.222-0.414-0.486-0.853-0.797-1.292-1.197-1.689-3.332-3.703-6.703-3.703-2.397 0-4.587 0.986-6.165 2.777-1.506 1.708-2.335 3.996-2.335 6.442 0 2.663 1.040 5.139 3.272 7.794 1.995 2.372 4.865 4.818 8.188 7.65 1.238 1.055 2.519 2.146 3.882 3.339l0.041 0.036c0.177 0.155 0.397 0.232 0.617 0.232s0.441-0.077 0.617-0.232l0.041-0.036c1.363-1.193 2.644-2.284 3.882-3.339 3.323-2.832 6.193-5.277 8.188-7.65 2.232-2.655 3.272-5.131 3.272-7.794 0-2.446-0.829-4.734-2.335-6.443zM19.325 25.101c-1.067 0.91-2.166 1.846-3.325 2.853-1.158-1.007-2.257-1.943-3.325-2.853-6.504-5.542-10.8-9.203-10.8-14.016 0-1.989 0.663-3.837 1.866-5.203 1.217-1.381 2.907-2.142 4.759-2.142 2.571 0 4.232 1.584 5.174 2.912 0.844 1.192 1.285 2.393 1.435 2.854 0.126 0.379 0.477 0.647 0.891 0.647s0.765-0.268 0.889-0.64l0.002-0.007c0.15-0.461 0.591-1.662 1.435-2.854 0.941-1.328 2.603-2.912 5.174-2.912 1.851 0 3.541 0.761 4.759 2.142 1.204 1.366 1.866 3.213 1.866 5.203 0 4.813-4.297 8.474-10.8 14.016z"></path>
</symbol>
<symbol id="like" viewBox="0 0 32 32">
<path d="M32 19c0-0.801-0.319-1.548-0.868-2.099 0.623-0.681 0.94-1.595 0.853-2.545-0.156-1.695-1.683-3.023-3.477-3.023h-8.236c0.408-1.239 1.061-3.509 1.061-5.333 0-2.892-2.457-5.333-4-5.333-1.384 0-2.375 0.78-2.416 0.812-0.153 0.123-0.251 0.311-0.251 0.521 0 0 0 0 0 0v0 4.521l-3.841 8.319-0.159 0.081v-0.255c0-0.368-0.299-0.667-0.667-0.667h-6.667c-1.839 0-3.333 1.495-3.333 3.333v10.667c0 1.839 1.495 3.333 3.333 3.333h4c1.441 0 2.673-0.92 3.137-2.204 1.109 0.571 2.603 0.871 3.529 0.871h12.239c1.452 0 2.723-0.979 3.021-2.328 0.153-0.696 0.064-1.396-0.24-2.004 0.984-0.495 1.647-1.512 1.647-2.668 0-0.472-0.108-0.924-0.312-1.332 0.984-0.496 1.645-1.512 1.645-2.668zM29.188 20.645c-0.261 0.031-0.474 0.209-0.556 0.447l-0.001 0.005c-0.021 0.063-0.034 0.135-0.034 0.21 0 0.191 0.081 0.364 0.209 0.486l0 0c0.339 0.319 0.527 0.748 0.527 1.207 0 0.841-0.636 1.548-1.477 1.645-0.261 0.031-0.474 0.209-0.556 0.447l-0.001 0.005c-0.021 0.063-0.034 0.135-0.034 0.21 0 0.191 0.081 0.364 0.209 0.486l0 0c0.439 0.413 0.615 0.993 0.483 1.591-0.164 0.744-0.887 1.283-1.719 1.283h-12.239c-1.083 0-2.899-0.508-3.528-1.139-0.191-0.189-0.479-0.245-0.727-0.144-0.244 0.103-0.412 0.34-0.412 0.616v0c0 1.103-0.897 2-2 2h-4c-1.103 0-2-0.897-2-2v-10.667c0-1.103 0.897-2 2-2h6v0.667c0 0.231 0.12 0.445 0.317 0.568 0.1 0.061 0.221 0.097 0.35 0.097 0.108 0 0.211-0.025 0.302-0.070l-0.004 0.002 1.333-0.667c0.135-0.069 0.242-0.178 0.305-0.312l0.002-0.004 4-8.667c0.040-0.088 0.061-0.184 0.061-0.28v-4.305c0.277-0.153 0.759-0.361 1.333-0.361 0.731 0 2.667 1.816 2.667 4 0 2.347-1.277 5.729-1.289 5.763-0.028 0.071-0.043 0.152-0.043 0.238 0 0.141 0.044 0.272 0.118 0.381l-0.001-0.002c0.122 0.175 0.323 0.288 0.549 0.288h9.175c1.112 0 2.056 0.796 2.149 1.812 0.071 0.76-0.295 1.483-0.949 1.887-0.204 0.125-0.325 0.352-0.316 0.593s0.148 0.457 0.361 0.568c0.564 0.287 0.913 0.852 0.913 1.473 0 0.841-0.636 1.548-1.479 1.645z"></path>
<path d="M10 15.333c-0.368 0-0.667 0.299-0.667 0.667v12c0 0.368 0.299 0.667 0.667 0.667s0.667-0.299 0.667-0.667v-12c0-0.368-0.299-0.667-0.667-0.667z"></path>
</symbol>
<symbol id="mail" viewBox="0 0 32 32">
<path d="M30.4 3.733h-28.8c-0.884 0-1.6 0.716-1.6 1.6v21.333c0 0.884 0.716 1.6 1.6 1.6h28.8c0.884 0 1.6-0.716 1.6-1.6v-21.333c0-0.884-0.716-1.6-1.6-1.6zM30.933 26.667c0 0.295-0.239 0.533-0.533 0.533v0h-28.8c-0.295 0-0.533-0.239-0.533-0.533v0-21.333c0-0.295 0.239-0.533 0.533-0.533v0h28.8c0.295 0 0.533 0.239 0.533 0.533v21.333z"></path>
<path d="M29.38 5.869c-0.014-0.001-0.030-0.002-0.046-0.002-0.131 0-0.251 0.047-0.344 0.126l-12.303 10.335c-0.184 0.156-0.424 0.25-0.686 0.25s-0.502-0.095-0.688-0.251l0.002 0.001-12.304-10.336c-0.091-0.075-0.209-0.12-0.337-0.12-0.295 0-0.533 0.239-0.533 0.533 0 0.161 0.071 0.306 0.184 0.403l0.001 0.001 12.304 10.335c0.793 0.668 1.952 0.668 2.745 0l12.304-10.335c0.117-0.098 0.19-0.245 0.19-0.409 0-0.131-0.047-0.251-0.126-0.344l0.001 0.001c-0.089-0.105-0.216-0.175-0.36-0.188l-0.002-0zM10.258 17.071c-0.035-0.008-0.075-0.013-0.116-0.013-0.158 0-0.3 0.069-0.398 0.178l-0 0-7.467 8c-0.092 0.096-0.149 0.226-0.149 0.369 0 0.294 0.239 0.533 0.533 0.533 0.157 0 0.297-0.067 0.395-0.175l0-0 7.467-8c0.094-0.096 0.152-0.228 0.152-0.373 0-0.253-0.177-0.465-0.414-0.52l-0.004-0.001zM22.257 17.236c-0.098-0.111-0.241-0.18-0.399-0.18-0.295 0-0.533 0.239-0.533 0.533 0 0.146 0.058 0.278 0.153 0.374l-0-0 7.467 8c0.097 0.1 0.233 0.162 0.383 0.162 0.295 0 0.533-0.239 0.533-0.533 0-0.137-0.052-0.262-0.137-0.357l-7.466-7.999z"></path>
</symbol>
<symbol id="phone" viewBox="0 0 32 32">
<path d="M29.432 21.004c-1.959 0-3.883-0.306-5.706-0.909-0.909-0.31-1.944-0.069-2.537 0.535l-3.598 2.716c-4.173-2.227-6.743-4.797-8.94-8.938l2.636-3.504c0.685-0.684 0.931-1.683 0.636-2.621-0.605-1.832-0.912-3.755-0.912-5.715 0-1.416-1.152-2.568-2.568-2.568h-5.877c-1.416 0-2.568 1.152-2.568 2.568 0 16.229 13.203 29.432 29.432 29.432 1.416 0 2.568-1.152 2.568-2.568v-5.86c-0-1.416-1.152-2.568-2.568-2.568zM30.222 29.432c0 0.436-0.354 0.79-0.79 0.79-15.249 0-27.654-12.405-27.654-27.654 0-0.436 0.354-0.79 0.79-0.79h5.877c0.436 0 0.79 0.354 0.79 0.79 0 2.15 0.338 4.26 0.998 6.26 0.092 0.295 0.017 0.601-0.281 0.912l-3.056 4.047c-0.112 0.147-0.18 0.334-0.18 0.536 0 0.147 0.036 0.285 0.099 0.407l-0.002-0.005c2.494 4.902 5.524 7.932 10.461 10.462 0.3 0.157 0.668 0.124 0.941-0.082l4.14-3.136c0.142-0.141 0.338-0.229 0.554-0.229 0.090 0 0.177 0.015 0.257 0.043l-0.006-0.002c2.013 0.665 4.123 1.002 6.273 1.002 0.436 0 0.79 0.354 0.79 0.79v5.86z"></path>
</symbol>
<symbol id="random" viewBox="0 0 32 32">
<path d="M31.333 22h-2c-8.337 0-10.863-4.017-13.537-8.268-2.803-4.457-5.701-9.065-15.129-9.065-0.368 0-0.667 0.299-0.667 0.667s0.299 0.667 0.667 0.667c8.692 0 11.271 4.1 14 8.441 2.749 4.371 5.592 8.892 14.667 8.892h2c0.368 0 0.667-0.299 0.667-0.667s-0.299-0.667-0.667-0.667z"></path>
<path d="M31.333 8.667h-2c-5.208 0-8.803 1.433-11.649 4.649-0.245 0.275-0.219 0.696 0.057 0.94 0.116 0.104 0.27 0.168 0.439 0.168 0.001 0 0.001 0 0.002 0h-0c0.001 0 0.001 0 0.002 0 0.198 0 0.375-0.087 0.496-0.225l0.001-0.001c1.733-1.953 4.508-4.199 10.652-4.199h2c0.368 0 0.667-0.299 0.667-0.667s-0.299-0.667-0.667-0.667zM15.267 17.853c-0.305-0.193-0.72-0.101-0.919 0.211l-0.191 0.301c-0.2 0.309-0.108 0.721 0.201 0.92 0.111 0.072 0.236 0.105 0.36 0.105 0.219 0 0.433-0.108 0.561-0.308l0.197-0.311c0.196-0.311 0.101-0.723-0.211-0.919z"></path>
<path d="M15.076 18.161c-0.305-0.195-0.72-0.105-0.92 0.204-2.659 4.177-5.511 7.635-13.489 7.635-0.368 0-0.667 0.299-0.667 0.667s0.299 0.667 0.667 0.667c8.644 0 11.845-3.904 14.613-8.252 0.199-0.311 0.107-0.723-0.204-0.92zM31.804 22.197l-4-4c-0.26-0.26-0.683-0.26-0.943 0s-0.26 0.683 0 0.943l3.528 3.528-3.528 3.528c-0.26 0.26-0.26 0.683 0 0.943 0.121 0.12 0.288 0.195 0.472 0.195s0.35-0.074 0.471-0.193l4-4c0.26-0.26 0.26-0.683 0-0.943zM31.805 8.863l-4-4c-0.26-0.26-0.683-0.26-0.943 0s-0.26 0.683 0 0.943l3.528 3.528-3.529 3.529c-0.26 0.26-0.26 0.683 0 0.943 0.121 0.12 0.288 0.195 0.472 0.195s0.351-0.074 0.472-0.195l4-4c0.26-0.26 0.26-0.683 0-0.943z"></path>
</symbol>
<symbol id="settings" viewBox="0 0 32 32">
<path d="M17.004 32h-2.008c-1.624 0-2.946-1.322-2.946-2.946v-0.679c-0.78-0.252-1.444-0.534-2.077-0.867l0.071 0.034-0.482 0.482c-1.166 1.168-3.034 1.133-4.167-0l-1.419-1.419c-1.134-1.133-1.167-3 0-4.167l0.481-0.481c-0.299-0.562-0.581-1.226-0.807-1.915l-0.026-0.091h-0.679c-1.624 0-2.946-1.322-2.946-2.946v-2.008c0-1.624 1.322-2.946 2.946-2.946h0.679c0.252-0.78 0.534-1.444 0.867-2.077l-0.034 0.071-0.482-0.481c-1.167-1.165-1.134-3.033 0-4.167l1.42-1.42c1.135-1.136 3.003-1.165 4.167 0l0.481 0.481c0.562-0.299 1.226-0.581 1.915-0.807l0.091-0.026v-0.679c0-1.624 1.322-2.946 2.946-2.946h2.008c1.624 0 2.946 1.321 2.946 2.946v0.679c0.78 0.252 1.444 0.534 2.077 0.867l-0.071-0.034 0.482-0.482c1.166-1.168 3.034-1.133 4.167 0l1.419 1.419c1.134 1.133 1.167 3.001-0 4.167l-0.481 0.481c0.299 0.562 0.581 1.226 0.807 1.915l0.026 0.091h0.679c1.624 0 2.946 1.322 2.946 2.946v2.008c0 1.624-1.322 2.946-2.946 2.946h-0.679c-0.252 0.78-0.534 1.444-0.867 2.077l0.034-0.071 0.482 0.482c1.167 1.165 1.134 3.033-0 4.167l-1.42 1.419c-1.135 1.137-3.003 1.165-4.166-0l-0.481-0.481c-0.562 0.299-1.226 0.581-1.915 0.807l-0.091 0.026v0.679c0 1.624-1.322 2.946-2.946 2.946zM10.357 25.573c0.824 0.497 1.777 0.904 2.787 1.172l0.077 0.017c0.408 0.108 0.703 0.473 0.703 0.908 0 0 0 0 0 0v0 1.384c0 0.59 0.48 1.071 1.071 1.071h2.008c0.59 0 1.071-0.48 1.071-1.071v-1.384c0 0 0-0 0-0 0-0.434 0.296-0.8 0.697-0.906l0.007-0.001c1.087-0.285 2.040-0.692 2.915-1.217l-0.050 0.028c0.136-0.082 0.301-0.131 0.477-0.131 0.259 0 0.493 0.105 0.663 0.275l0.98 0.981c0.423 0.423 1.102 0.413 1.514 0l1.42-1.42c0.411-0.411 0.425-1.090 0-1.514l-0.981-0.981c-0.17-0.17-0.275-0.404-0.275-0.663 0-0.176 0.049-0.341 0.133-0.481l-0.002 0.004c0.497-0.824 0.904-1.777 1.172-2.787l0.017-0.077c0.108-0.408 0.473-0.703 0.908-0.703 0 0 0 0 0 0h1.384c0.59 0 1.071-0.48 1.071-1.071v-2.008c0-0.59-0.48-1.071-1.071-1.071h-1.384c0 0 0 0 0 0-0.434 0-0.8-0.296-0.906-0.697l-0.001-0.007c-0.285-1.087-0.692-2.040-1.217-2.915l0.028 0.050c-0.082-0.136-0.131-0.301-0.131-0.477 0-0.259 0.105-0.493 0.275-0.663l0.981-0.981c0.424-0.423 0.413-1.102 0-1.514l-1.42-1.42c-0.412-0.412-1.091-0.424-1.514-0l-0.981 0.981c-0.17 0.17-0.404 0.275-0.663 0.275-0.176 0-0.341-0.049-0.482-0.133l0.004 0.002c-0.824-0.497-1.777-0.904-2.787-1.172l-0.077-0.017c-0.408-0.108-0.703-0.473-0.703-0.908 0 0 0-0 0-0v0-1.384c0-0.59-0.48-1.071-1.071-1.071h-2.008c-0.59 0-1.071 0.48-1.071 1.071v1.384c0 0 0 0 0 0 0 0.434-0.296 0.8-0.697 0.906l-0.007 0.001c-1.087 0.285-2.040 0.692-2.915 1.217l0.050-0.028c-0.136 0.082-0.301 0.131-0.477 0.131-0.259 0-0.493-0.105-0.663-0.275l-0.98-0.981c-0.423-0.423-1.102-0.413-1.514-0l-1.42 1.42c-0.411 0.411-0.425 1.090-0 1.514l0.981 0.981c0.17 0.17 0.275 0.404 0.275 0.663 0 0.176-0.048 0.341-0.133 0.481l0.002-0.004c-0.497 0.824-0.904 1.777-1.172 2.787l-0.017 0.077c-0.108 0.408-0.473 0.703-0.908 0.703 0 0 0 0 0 0h-1.384c-0.59 0-1.071 0.48-1.071 1.071v2.008c0 0.59 0.48 1.071 1.071 1.071h1.384c0 0 0 0 0 0 0.434 0 0.8 0.296 0.906 0.697l0.001 0.007c0.285 1.087 0.692 2.040 1.217 2.915l-0.028-0.050c0.082 0.136 0.131 0.301 0.131 0.477 0 0.259-0.105 0.493-0.275 0.663l-0.981 0.981c-0.424 0.423-0.413 1.102-0 1.514l1.42 1.42c0.412 0.412 1.091 0.424 1.514 0l0.981-0.981c0.223-0.223 0.687-0.412 1.14-0.144z"></path>
<path d="M16 22.962c-3.839 0-6.963-3.123-6.963-6.963s3.123-6.963 6.963-6.963 6.962 3.123 6.962 6.963-3.123 6.963-6.963 6.963zM16 10.912c-2.805 0-5.088 2.282-5.088 5.088s2.282 5.087 5.088 5.087 5.087-2.282 5.087-5.088-2.282-5.088-5.088-5.088z"></path>
</symbol>
<symbol id="shield" viewBox="0 0 32 32">
<path d="M28.118 6.479l-12.027-6.409c-0.081-0.044-0.178-0.070-0.282-0.070-0.106 0-0.205 0.027-0.291 0.075l0.003-0.002-11.694 6.408c-0.187 0.104-0.311 0.3-0.311 0.525 0 0 0 0 0 0v0 8.371c0.007 6.881 4.084 13.107 10.389 15.864l1.623 0.707c0.070 0.032 0.153 0.050 0.239 0.050s0.167-0.018 0.241-0.051l-0.004 0.002 1.829-0.79c6.422-2.697 10.6-8.983 10.601-15.948v-8.205c0-0 0-0 0-0 0-0.228-0.127-0.426-0.314-0.527l-0.003-0.002zM27.237 15.213c-0.001 6.485-3.892 12.337-9.872 14.846l-0.004 0.002-1.593 0.688-1.384-0.604c-5.869-2.566-9.664-8.36-9.671-14.766v-8.017l11.1-6.083 11.424 6.088z"></path>
<path d="M11.395 14.991c-0.111-0.129-0.273-0.21-0.455-0.21-0.149 0-0.285 0.054-0.39 0.144l0.001-0.001c-0.129 0.11-0.21 0.273-0.21 0.455 0 0.149 0.054 0.285 0.144 0.39l-0.001-0.001 3.163 3.704c0.11 0.129 0.273 0.21 0.455 0.21 0.144 0 0.276-0.051 0.379-0.135l-0.001 0.001 7.366-5.993c0.135-0.111 0.221-0.278 0.221-0.464 0-0.331-0.268-0.599-0.599-0.599-0.144 0-0.276 0.051-0.379 0.135l0.001-0.001-6.913 5.623z"></path>
</symbol>
<symbol id="world" viewBox="0 0 32 32">
<path d="M16.006 0.003c-6.402-0.001-12.188 3.815-14.708 9.7l-0.199 0.066 0.077 0.232c-3.318 8.183 0.626 17.506 8.809 20.823 1.777 0.741 3.842 1.172 6.007 1.172 0.003 0 0.006 0 0.009 0h-0c8.835 0.001 15.998-7.16 15.999-15.994s-7.16-15.998-15.994-15.999zM28.553 24.065l-0.821-0.821v-1.912c0-0.002 0-0.004 0-0.006 0-0.085-0.020-0.164-0.055-0.235l0.001 0.003-2.080-4.153v-2.007c0-0 0-0 0-0 0-0.184-0.093-0.347-0.235-0.442l-0.002-0.001-1.6-1.066c-0.083-0.056-0.186-0.090-0.296-0.090-0.046 0-0.091 0.006-0.134 0.017l0.004-0.001-1.959 0.489-3.291-1.412-0.453-3.172 1.255-1.254h2.693l0.906 1.362c0.081 0.12 0.207 0.204 0.353 0.229l0.003 0 3.199 0.533c0.026 0.005 0.057 0.007 0.087 0.007 0.060 0 0.118-0.010 0.172-0.029l-0.004 0.001 2.947-0.982c2.471 4.743 2.207 10.447-0.692 14.941zM26.354 5.258l-0.867 0.578-2.417-0.484-1.568-0.522c-0.050-0.018-0.108-0.028-0.169-0.028-0.046 0-0.090 0.006-0.133 0.017l0.004-0.001-1.983 0.495-0.869-0.29 0.644-1.288h1.803c0 0 0 0 0.001 0 0.087 0 0.169-0.021 0.241-0.057l-0.003 0.001 1.845-0.922c1.327 0.701 2.469 1.533 3.475 2.504l-0.004-0.004zM10.161 2.26l1.28 0.853c0.059 0.040 0.13 0.069 0.205 0.082l0.003 0 2.584 0.431-0.252 0.754-1.346 0.45c-0.123 0.042-0.223 0.123-0.287 0.229l-0.001 0.002-1.531 2.552-2.46 1.476-3.626 0.518c-0.26 0.038-0.458 0.259-0.459 0.527v1.6c0 0.147 0.060 0.28 0.156 0.377l0.91 0.91v0.916l-2.218-1.479-0.805-2.414c1.562-3.509 4.323-6.249 7.75-7.746l0.097-0.038zM8.642 19.743l-2.41-0.483-0.896-1.787v-1.253l1.987-1.987 0.735 1.471c0.089 0.176 0.269 0.295 0.477 0.295 0 0 0 0 0 0h3.431l1.444 2.407c0.095 0.156 0.264 0.259 0.457 0.259h1.482l-0.373 1.87-2.019 2.019c-0.097 0.096-0.157 0.23-0.157 0.377v1.333l-1.92 1.44c-0.13 0.098-0.213 0.253-0.213 0.427v0 1.926l-0.663-0.22-0.936-2.342v-5.23c0-0 0-0 0-0 0-0.257-0.181-0.471-0.423-0.522l-0.003-0.001zM7.040 27.94c-5.028-3.772-7.154-10.289-5.318-16.3l0.443 1.329c0.039 0.115 0.112 0.209 0.208 0.274l0.002 0.001 2.658 1.772-0.606 0.607c-0.096 0.096-0.156 0.23-0.156 0.377v0 1.6c0 0 0 0 0 0.001 0 0.087 0.021 0.169 0.057 0.241l-0.001-0.003 1.066 2.133c0.074 0.145 0.209 0.251 0.37 0.284l0.003 0.001 2.24 0.447v4.895c0 0 0 0 0 0 0 0.071 0.014 0.139 0.039 0.201l-0.001-0.004 1.066 2.666c0.059 0.146 0.177 0.257 0.323 0.307l0.004 0.001 1.6 0.533c0.049 0.017 0.106 0.027 0.166 0.028h0c0.294 0 0.533-0.239 0.533-0.533v0-2.399l1.92-1.44c0.13-0.098 0.213-0.253 0.213-0.427v0-1.379l1.977-1.977c0.072-0.072 0.124-0.165 0.145-0.269l0.001-0.003 0.533-2.666c0.007-0.031 0.010-0.068 0.010-0.105 0-0.294-0.239-0.533-0.533-0.533h-1.831l-1.444-2.408c-0.095-0.156-0.264-0.259-0.457-0.259h-3.403l-0.916-1.838c-0.077-0.151-0.219-0.259-0.389-0.287l-0.003-0c-0.027-0.005-0.058-0.008-0.089-0.008-0.146 0-0.278 0.060-0.373 0.157l-0 0-0.692 0.689v-0.846c-0-0.147-0.060-0.28-0.156-0.377l-0.91-0.91v-0.917l3.275-0.468c0.075-0.011 0.142-0.036 0.201-0.072l-0.002 0.001 2.666-1.6c0.075-0.046 0.137-0.107 0.181-0.18l0.001-0.002 1.498-2.497 1.412-0.471c0.16-0.054 0.283-0.177 0.336-0.333l0.001-0.004 0.533-1.6c0.017-0.050 0.027-0.107 0.027-0.167 0-0.263-0.191-0.482-0.442-0.525l-0.003-0-3.086-0.515-0.542-0.362c1.376-0.464 2.961-0.731 4.608-0.731 2.036 0 3.977 0.409 5.745 1.149l-0.098-0.036-0.974 0.486h-2.007c-0.001 0-0.002 0-0.003 0-0.208 0-0.387 0.119-0.476 0.292l-0.001 0.003-1.066 2.133c-0.035 0.069-0.056 0.151-0.056 0.238 0 0.234 0.151 0.433 0.361 0.505l0.004 0.001 1.6 0.533c0.096 0.033 0.199 0.037 0.298 0.012l1.983-0.495 1.453 0.484c0.021 0.007 0.042 0.013 0.064 0.017l2.666 0.533c0.032 0.007 0.068 0.011 0.106 0.011 0.11 0 0.212-0.033 0.297-0.091l-0.002 0.001 1.214-0.809c0.573 0.636 1.102 1.336 1.567 2.080l0.037 0.063-2.623 0.874-2.84-0.473-0.938-1.408c-0.097-0.143-0.258-0.236-0.441-0.237h-3.2c-0.147 0-0.28 0.060-0.377 0.156l-1.6 1.6c-0.097 0.097-0.156 0.23-0.156 0.377 0 0.027 0.002 0.053 0.006 0.078l-0-0.003 0.533 3.733c0.028 0.188 0.15 0.341 0.316 0.413l0.003 0.001 3.733 1.6c0.062 0.027 0.134 0.043 0.209 0.043 0.046 0 0.091-0.006 0.133-0.017l-0.004 0.001 1.904-0.476 1.164 0.777v1.848c-0 0.002-0 0.004-0 0.006 0 0.085 0.020 0.164 0.055 0.235l-0.001-0.003 2.080 4.153v2.007c0 0.147 0.060 0.28 0.156 0.377l1.116 1.116c-4.947 6.594-14.303 7.929-20.898 2.982z"></path>
</symbol>
</defs>
</svg>
